<?xml version="1.0" standalone="no"?>
<!DOCTYPE svg PUBLIC "-//W3C//DTD SVG 20010904//EN"
 "http://www.w3.org/TR/2001/REC-SVG-20010904/DTD/svg10.dtd">
<svg version="1.0" xmlns="http://www.w3.org/2000/svg"
 width="920.000000pt" height="920.000000pt" viewBox="0 0 920.000000 920.000000"
 preserveAspectRatio="xMidYMid meet">
<metadata>
Created by potrace 1.11, written by Peter Selinger 2001-2013
</metadata>
<g transform="translate(0.000000,920.000000) scale(0.100000,-0.100000)"
fill="#000000" stroke="none">
<path d="M730 7903 c0 -536 1 -570 19 -610 47 -103 192 -135 277 -61 69 60 67
51 68 482 l1 389 390 1 c433 2 421 0 483 70 74 85 42 230 -61 277 -40 18 -74
19 -609 19 l-568 0 0 -567z"/>
<path d="M7225 8451 c-72 -33 -105 -86 -105 -168 0 -62 35 -121 92 -153 l43
-25 385 0 385 0 5 -396 5 -396 27 -40 c45 -68 141 -100 215 -72 40 15 82 57
104 104 17 37 19 76 19 603 l0 562 -567 0 c-531 0 -571 -2 -608 -19z"/>
<path d="M4375 8284 c-235 -18 -327 -27 -440 -45 -438 -70 -836 -219 -1168
-438 -593 -392 -993 -1021 -1104 -1737 -13 -84 -17 -172 -16 -384 1 -506 47
-937 130 -1236 l26 -94 -28 -35 c-34 -45 -99 -186 -113 -245 -6 -25 -14 -73
-18 -107 l-6 -62 -407 -3 -407 -3 -43 -28 c-112 -74 -105 -241 14 -309 l40
-23 3730 0 c3504 0 3732 1 3761 17 76 42 116 128 96 205 -15 54 -35 83 -81
114 l-35 24 -413 3 -413 3 0 52 c0 69 -33 185 -76 271 l-35 68 25 142 c64 352
81 561 81 1016 0 316 -3 409 -18 520 -38 277 -100 526 -188 747 -363 919
-1144 1446 -2299 1553 -123 11 -512 20 -595 14z m525 -374 c689 -52 1215 -264
1582 -637 158 -160 254 -292 348 -473 165 -322 254 -668 282 -1097 18 -279 -4
-731 -53 -1065 -6 -43 -12 -78 -13 -78 0 0 -23 9 -51 19 l-50 19 -6 258 c-5
199 -10 274 -23 324 -62 232 -224 383 -486 454 -177 47 -318 60 -825 76 -170
6 -362 15 -425 21 -520 46 -867 195 -1078 462 -116 146 -197 331 -252 572 -35
157 -56 195 -124 226 -50 23 -95 24 -144 4 -79 -34 -99 -72 -132 -249 -31
-167 -73 -293 -138 -421 -49 -94 -70 -123 -147 -200 -106 -106 -168 -142 -419
-240 -93 -36 -201 -84 -240 -107 -102 -59 -185 -148 -235 -250 -72 -146 -74
-160 -80 -567 l-6 -364 -29 -10 c-37 -12 -41 -5 -60 103 -59 323 -79 560 -80
955 -1 308 1 337 22 440 98 465 295 839 607 1149 379 377 896 606 1505 665 63
6 129 13 145 15 73 8 482 5 605 -4z m-1191 -1719 c94 -185 290 -419 434 -519
223 -153 533 -254 916 -297 73 -8 249 -19 390 -25 678 -27 752 -33 891 -71 94
-25 161 -66 197 -121 l28 -41 6 -366 c3 -201 6 -367 7 -368 23 -32 82 -88 102
-95 14 -6 58 -14 98 -19 182 -21 316 -146 338 -316 l7 -53 -554 0 -554 0 0
108 c0 105 -1 111 -37 183 -48 97 -119 169 -214 216 -63 30 -85 36 -164 41
-112 6 -195 -14 -278 -68 -140 -90 -225 -262 -208 -422 l6 -58 -556 0 -557 0
6 53 c18 192 -84 371 -260 454 -69 33 -88 38 -173 41 -112 5 -189 -16 -278
-75 -133 -89 -214 -263 -195 -420 l6 -53 -553 0 -553 0 6 56 c17 166 155 295
336 313 80 8 110 19 149 55 58 52 57 42 62 548 l5 466 30 43 c38 54 106 91
305 170 85 34 188 79 229 101 243 128 400 289 509 520 21 43 38 78 39 78 2 0
16 -26 32 -59z"/>
<path d="M2407 3165 c-50 -17 -85 -50 -108 -100 -36 -77 -25 -112 132 -430
476 -967 1079 -1502 1830 -1625 156 -25 419 -27 576 -4 753 110 1367 642 1847
1602 121 241 158 332 158 387 1 79 -39 138 -114 170 -103 42 -196 -10 -252
-142 -50 -118 -201 -414 -271 -533 -481 -815 -1071 -1191 -1773 -1133 -525 44
-948 321 -1349 881 -129 181 -317 520 -424 765 -46 107 -83 149 -146 166 -48
14 -59 13 -106 -4z"/>
<path d="M835 2064 c-45 -23 -66 -45 -86 -89 -17 -37 -19 -78 -19 -607 l0
-568 553 0 c354 0 566 4 590 11 47 13 106 63 123 106 32 77 2 174 -69 221
l-41 27 -395 3 -396 3 1 362 c0 199 -3 381 -8 405 -17 86 -86 142 -175 142
-26 0 -61 -7 -78 -16z"/>
<path d="M8135 2064 c-45 -23 -66 -45 -86 -89 -17 -37 -19 -73 -19 -422 l0
-383 -382 0 c-352 0 -386 -2 -424 -19 -61 -28 -97 -80 -102 -150 -5 -74 21
-130 80 -168 l42 -28 575 0 576 0 0 576 0 575 -28 42 c-15 23 -45 51 -67 62
-47 24 -123 26 -165 4z"/>
</g>
</svg>
